<svg width="50" height="50" viewBox="0 0 50 50" fill="none" xmlns="http://www.w3.org/2000/svg">
<g clip-path="url(#clip0_343_89)">
<path d="M37.5 4.16667C42.0958 4.16667 45.8333 7.90417 45.8333 12.5V37.5C45.8333 42.0958 42.0958 45.8333 37.5 45.8333H12.5C7.90417 45.8333 4.16667 42.0958 4.16667 37.5V12.5C4.16667 7.90417 7.90417 4.16667 12.5 4.16667H37.5ZM37.5 0H12.5C9.18479 0 6.00537 1.31696 3.66116 3.66116C1.31696 6.00537 0 9.18479 0 12.5L0 37.5C0 40.8152 1.31696 43.9946 3.66116 46.3388C6.00537 48.683 9.18479 50 12.5 50H37.5C40.8152 50 43.9946 48.683 46.3388 46.3388C48.683 43.9946 50 40.8152 50 37.5V12.5C50 9.18479 48.683 6.00537 46.3388 3.66116C43.9946 1.31696 40.8152 0 37.5 0Z" fill="black"/>
<path d="M27.9463 25.0005L33.838 19.1088C34.0314 18.9154 34.1848 18.6857 34.2895 18.433C34.3942 18.1803 34.4481 17.9094 34.4481 17.6359C34.4481 17.3623 34.3942 17.0915 34.2895 16.8387C34.1848 16.586 34.0314 16.3564 33.838 16.163C33.6445 15.9695 33.4149 15.8161 33.1622 15.7114C32.9095 15.6067 32.6386 15.5529 32.365 15.5529C32.0915 15.5529 31.8206 15.6067 31.5679 15.7114C31.3152 15.8161 31.0856 15.9695 30.8921 16.163L25.0005 22.0546L19.1067 16.1609C18.7161 15.7702 18.1863 15.5508 17.6338 15.5508C17.0813 15.5508 16.5515 15.7702 16.1609 16.1609C15.7702 16.5515 15.5508 17.0813 15.5508 17.6338C15.5508 18.1863 15.7702 18.7161 16.1609 19.1067L22.0546 25.0005L16.163 30.8921C15.9695 31.0856 15.8161 31.3152 15.7114 31.5679C15.6067 31.8206 15.5529 32.0915 15.5529 32.3651C15.5529 32.6386 15.6067 32.9095 15.7114 33.1622C15.8161 33.4149 15.9695 33.6445 16.163 33.838C16.3564 34.0314 16.586 34.1848 16.8387 34.2895C17.0915 34.3942 17.3623 34.4481 17.6359 34.4481C17.9094 34.4481 18.1803 34.3942 18.433 34.2895C18.6857 34.1848 18.9154 34.0314 19.1088 33.838L25.0005 27.9463L30.8921 33.838C31.0852 34.0321 31.3147 34.1862 31.5674 34.2913C31.8202 34.3964 32.0913 34.4505 32.365 34.4505C32.6388 34.4505 32.9099 34.3964 33.1627 34.2913C33.4154 34.1862 33.6449 34.0321 33.838 33.838C34.0316 33.6447 34.1852 33.4151 34.29 33.1623C34.3948 32.9096 34.4488 32.6387 34.4488 32.3651C34.4488 32.0914 34.3948 31.8205 34.29 31.5678C34.1852 31.315 34.0316 31.0854 33.838 30.8921L27.9463 25.0005Z" fill="black"/>
</g>
<defs>
<clipPath id="clip0_343_89">
<rect width="50" height="50" fill="white"/>
</clipPath>
</defs>
</svg>
