<svg width="45" height="41" viewBox="0 0 45 41" fill="none" xmlns="http://www.w3.org/2000/svg">
<path d="M44.25 39H43.5V26.25C43.5 25.0095 42.4905 24 41.25 24H39V19.5C39 18.2595 37.9905 17.25 36.75 17.25H34.5V2.25C34.5 1.0095 33.4905 0 32.25 0H12.75C11.5095 0 10.5 1.0095 10.5 2.25V17.25H8.25C7.0095 17.25 6 18.2595 6 19.5V24H3.75C2.5095 24 1.5 25.0095 1.5 26.25V39H0.75C0.551088 39 0.360322 39.079 0.21967 39.2197C0.0790178 39.3603 0 39.5511 0 39.75C0 39.9489 0.0790178 40.1397 0.21967 40.2803C0.360322 40.421 0.551088 40.5 0.75 40.5H44.25C44.4489 40.5 44.6397 40.421 44.7803 40.2803C44.921 40.1397 45 39.9489 45 39.75C45 39.5511 44.921 39.3603 44.7803 39.2197C44.6397 39.079 44.4489 39 44.25 39ZM10.5 39H3V26.25C3 25.8368 3.336 25.5 3.75 25.5H6.75C6.94891 25.5 7.13968 25.421 7.28033 25.2803C7.42098 25.1397 7.5 24.9489 7.5 24.75V19.5C7.5 19.0868 7.836 18.75 8.25 18.75H10.5V39ZM26.25 39H18.75V31.5C18.75 31.0868 19.086 30.75 19.5 30.75H25.5C25.914 30.75 26.25 31.0868 26.25 31.5V39ZM33 39H27.75V31.5C27.75 30.2595 26.7405 29.25 25.5 29.25H19.5C18.2595 29.25 17.25 30.2595 17.25 31.5V39H12V2.25C12 1.83675 12.336 1.5 12.75 1.5H32.25C32.664 1.5 33 1.83675 33 2.25V39ZM42 39H34.5V18.75H36.75C37.164 18.75 37.5 19.0868 37.5 19.5V24.75C37.5 24.9489 37.579 25.1397 37.7197 25.2803C37.8603 25.421 38.0511 25.5 38.25 25.5H41.25C41.664 25.5 42 25.8368 42 26.25V39ZM8.3925 27.765C8.445 27.7725 8.49 27.7875 8.535 27.81C8.58 27.825 8.625 27.8475 8.6625 27.8775C8.7075 27.9075 8.745 27.9375 8.7825 27.9675C8.85 28.0425 8.9025 28.1175 8.94 28.215C8.97843 28.3052 8.99882 28.402 9 28.5C9 28.7025 8.9175 28.89 8.7825 29.0325C8.64 29.1675 8.445 29.25 8.25 29.25C8.055 29.25 7.86 29.1675 7.7175 29.0325C7.57916 28.8896 7.50125 28.6989 7.5 28.5C7.50118 28.402 7.52157 28.3052 7.56 28.215C7.59436 28.1223 7.64805 28.0379 7.7175 27.9675C7.8975 27.795 8.1525 27.72 8.3925 27.765ZM8.7825 31.7175C8.9175 31.86 9 32.055 9 32.25C9 32.295 8.9925 32.3475 8.985 32.4C8.97701 32.447 8.96184 32.4926 8.94 32.535C8.925 32.58 8.9025 32.625 8.8725 32.67L8.7825 32.7825C8.64 32.9175 8.445 33 8.25 33C8.055 33 7.86 32.9175 7.7175 32.7825C7.57916 32.6396 7.50125 32.4489 7.5 32.25C7.50118 32.152 7.52157 32.0552 7.56 31.965C7.5975 31.8675 7.65 31.7925 7.7175 31.7175C7.7925 31.65 7.8675 31.5975 7.965 31.56C8.2425 31.44 8.5725 31.5075 8.7825 31.7175ZM8.7825 35.4675C8.9175 35.61 9 35.805 9 36C9 36.195 8.9175 36.39 8.7825 36.5325C8.64 36.6675 8.445 36.75 8.25 36.75C8.055 36.75 7.86 36.6675 7.7175 36.5325C7.5825 36.39 7.5 36.195 7.5 36C7.5 35.805 7.5825 35.61 7.7175 35.4675C7.7925 35.4 7.8675 35.3475 7.965 35.31C8.2425 35.19 8.5725 35.2575 8.7825 35.4675ZM5.94 35.715C5.97843 35.8052 5.99882 35.902 6 36C6 36.195 5.9175 36.39 5.7825 36.5325C5.745 36.5625 5.7075 36.6 5.6625 36.6225C5.625 36.6525 5.58 36.675 5.535 36.69C5.49024 36.7126 5.44212 36.7278 5.3925 36.735C5.3475 36.7425 5.295 36.75 5.25 36.75C5.15199 36.7488 5.05517 36.7284 4.965 36.69C4.8675 36.6525 4.7925 36.6 4.7175 36.5325C4.5825 36.39 4.5 36.195 4.5 36C4.5 35.9025 4.515 35.805 4.56 35.715C4.5975 35.6175 4.65 35.5425 4.7175 35.4675C4.8975 35.295 5.1525 35.22 5.3925 35.265C5.445 35.2725 5.49 35.2875 5.535 35.31C5.58 35.325 5.625 35.3475 5.6625 35.3775C5.7075 35.4075 5.745 35.4375 5.7825 35.4675C5.85 35.5425 5.9025 35.6175 5.94 35.715ZM5.94 31.965C5.97843 32.0552 5.99882 32.152 6 32.25C6 32.445 5.9175 32.64 5.7825 32.7825C5.745 32.8125 5.7075 32.85 5.6625 32.8725C5.625 32.9025 5.58 32.925 5.535 32.94C5.49024 32.9626 5.44212 32.9778 5.3925 32.985C5.3475 32.9925 5.295 33 5.25 33C5.055 33 4.86 32.9175 4.7175 32.7825C4.5825 32.64 4.5 32.445 4.5 32.25C4.5 32.1525 4.515 32.055 4.56 31.965C4.5975 31.8675 4.65 31.7925 4.7175 31.7175C4.7925 31.65 4.8675 31.5975 4.965 31.56C5.1 31.5 5.25 31.485 5.3925 31.515C5.445 31.5225 5.49 31.5375 5.535 31.56C5.58 31.575 5.625 31.5975 5.6625 31.6275C5.7075 31.65 5.745 31.6875 5.7825 31.7175C5.85 31.7925 5.9025 31.8675 5.94 31.965ZM5.94 28.215C5.97843 28.3052 5.99882 28.402 6 28.5C6 28.695 5.9175 28.89 5.7825 29.0325C5.745 29.0625 5.7075 29.1 5.6625 29.1225C5.625 29.1525 5.58 29.175 5.535 29.19C5.49024 29.2126 5.44212 29.2278 5.3925 29.235C5.3475 29.2425 5.295 29.25 5.25 29.25C5.055 29.25 4.86 29.1675 4.7175 29.0325C4.5825 28.89 4.5 28.695 4.5 28.5C4.5 28.4025 4.515 28.305 4.56 28.215C4.5975 28.1175 4.65 28.0425 4.7175 27.9675C4.89 27.795 5.1525 27.7125 5.3925 27.765C5.445 27.7725 5.49 27.7875 5.535 27.81C5.58 27.825 5.625 27.8475 5.6625 27.8775C5.7075 27.9 5.745 27.9375 5.7825 27.9675C5.85 28.0425 5.9025 28.1175 5.94 28.215ZM20.25 21H15C14.8011 21 14.6103 21.079 14.4697 21.2197C14.329 21.3603 14.25 21.5511 14.25 21.75V26.25C14.25 26.4489 14.329 26.6397 14.4697 26.7803C14.6103 26.921 14.8011 27 15 27H20.25C20.4489 27 20.6397 26.921 20.7803 26.7803C20.921 26.6397 21 26.4489 21 26.25V21.75C21 21.5511 20.921 21.3603 20.7803 21.2197C20.6397 21.079 20.4489 21 20.25 21ZM19.5 25.5H15.75V22.5H19.5V25.5ZM30 21H24.75C24.5511 21 24.3603 21.079 24.2197 21.2197C24.079 21.3603 24 21.5511 24 21.75V26.25C24 26.4489 24.079 26.6397 24.2197 26.7803C24.3603 26.921 24.5511 27 24.75 27H30C30.1989 27 30.3897 26.921 30.5303 26.7803C30.671 26.6397 30.75 26.4489 30.75 26.25V21.75C30.75 21.5511 30.671 21.3603 30.5303 21.2197C30.3897 21.079 30.1989 21 30 21ZM29.25 25.5H25.5V22.5H29.25V25.5ZM30 12.75H24.75C24.5511 12.75 24.3603 12.829 24.2197 12.9697C24.079 13.1103 24 13.3011 24 13.5V18C24 18.1989 24.079 18.3897 24.2197 18.5303C24.3603 18.671 24.5511 18.75 24.75 18.75H30C30.1989 18.75 30.3897 18.671 30.5303 18.5303C30.671 18.3897 30.75 18.1989 30.75 18V13.5C30.75 13.3011 30.671 13.1103 30.5303 12.9697C30.3897 12.829 30.1989 12.75 30 12.75ZM29.25 17.25H25.5V14.25H29.25V17.25ZM37.44 35.715C37.4784 35.8052 37.4988 35.902 37.5 36C37.5 36.2025 37.4175 36.39 37.2825 36.5325C37.14 36.6675 36.945 36.75 36.75 36.75C36.555 36.75 36.36 36.6675 36.2175 36.5325C36.1875 36.495 36.15 36.4575 36.1275 36.42C36.0989 36.3783 36.0762 36.3329 36.06 36.285C36.0385 36.2424 36.0234 36.1969 36.015 36.15C36.0075 36.0975 36 36.0525 36 36C36 35.9025 36.015 35.805 36.06 35.715C36.0975 35.625 36.15 35.5425 36.2175 35.4675C36.495 35.19 37.005 35.19 37.2825 35.4675C37.35 35.5425 37.4025 35.625 37.44 35.715ZM37.2825 27.9675C37.4175 28.11 37.5 28.305 37.5 28.5C37.4988 28.598 37.4784 28.6948 37.44 28.785C37.4025 28.8825 37.35 28.9575 37.2825 29.0325C37.14 29.1675 36.945 29.25 36.75 29.25C36.555 29.25 36.36 29.1675 36.2175 29.0325C36.15 28.9575 36.0975 28.875 36.06 28.785C36.0178 28.6961 35.9972 28.5984 36 28.5C36 28.455 36.0075 28.4025 36.015 28.35C36.0225 28.305 36.0375 28.26 36.06 28.215C36.075 28.17 36.0975 28.125 36.1275 28.0875C36.15 28.0425 36.1875 28.005 36.2175 27.9675C36.495 27.69 37.005 27.69 37.2825 27.9675ZM37.44 31.965C37.4784 32.0552 37.4988 32.152 37.5 32.25C37.5 32.445 37.4175 32.64 37.2825 32.7825C37.14 32.9175 36.945 33 36.75 33C36.555 33 36.36 32.9175 36.2175 32.7825C36.1875 32.745 36.15 32.7075 36.1275 32.6625C36.0976 32.6244 36.0747 32.5812 36.06 32.535C36.0385 32.4924 36.0234 32.4469 36.015 32.4C36.0067 32.3504 36.0017 32.3003 36 32.25C36 32.1525 36.015 32.055 36.06 31.965C36.0975 31.875 36.15 31.7925 36.2175 31.7175C36.495 31.44 37.005 31.44 37.2825 31.7175C37.35 31.7925 37.4025 31.8675 37.44 31.965ZM30 4.5H24.75C24.5511 4.5 24.3603 4.57902 24.2197 4.71967C24.079 4.86032 24 5.05109 24 5.25V9.75C24 9.94891 24.079 10.1397 24.2197 10.2803C24.3603 10.421 24.5511 10.5 24.75 10.5H30C30.1989 10.5 30.3897 10.421 30.5303 10.2803C30.671 10.1397 30.75 9.94891 30.75 9.75V5.25C30.75 5.05109 30.671 4.86032 30.5303 4.71967C30.3897 4.57902 30.1989 4.5 30 4.5ZM29.25 9H25.5V6H29.25V9ZM20.25 12.75H15C14.8011 12.75 14.6103 12.829 14.4697 12.9697C14.329 13.1103 14.25 13.3011 14.25 13.5V18C14.25 18.1989 14.329 18.3897 14.4697 18.5303C14.6103 18.671 14.8011 18.75 15 18.75H20.25C20.4489 18.75 20.6397 18.671 20.7803 18.5303C20.921 18.3897 21 18.1989 21 18V13.5C21 13.3011 20.921 13.1103 20.7803 12.9697C20.6397 12.829 20.4489 12.75 20.25 12.75ZM19.5 17.25H15.75V14.25H19.5V17.25ZM40.2825 35.4675C40.4175 35.61 40.5 35.805 40.5 36C40.5 36.0525 40.4925 36.0975 40.485 36.15C40.477 36.197 40.4618 36.2426 40.44 36.285C40.425 36.33 40.4025 36.375 40.3725 36.42L40.2825 36.5325L40.17 36.6225C40.125 36.6525 40.08 36.675 40.035 36.69C39.9902 36.7126 39.9421 36.7278 39.8925 36.735C39.8475 36.7425 39.795 36.75 39.75 36.75C39.6525 36.75 39.555 36.735 39.465 36.69C39.375 36.6525 39.2925 36.6 39.2175 36.5325C39.1875 36.495 39.15 36.4575 39.1275 36.42C39.0989 36.3783 39.0762 36.3329 39.06 36.285C39.0385 36.2424 39.0234 36.1969 39.015 36.15C39.0075 36.0975 39 36.0525 39 36C39 35.805 39.0825 35.61 39.2175 35.4675C39.2925 35.4 39.3675 35.3475 39.465 35.31C39.6 35.25 39.75 35.235 39.8925 35.265C39.945 35.2725 39.99 35.2875 40.035 35.31C40.08 35.325 40.125 35.3475 40.17 35.3775L40.2825 35.4675ZM40.485 28.35C40.4925 28.4025 40.5 28.4475 40.5 28.5C40.5 28.5975 40.4775 28.695 40.44 28.785C40.4025 28.875 40.35 28.9575 40.2825 29.0325C40.245 29.0625 40.2075 29.1 40.17 29.1225C40.125 29.1525 40.08 29.175 40.035 29.19C39.9902 29.2126 39.9421 29.2278 39.8925 29.235C39.8475 29.2425 39.795 29.25 39.75 29.25C39.652 29.2488 39.5552 29.2284 39.465 29.19C39.3675 29.1525 39.2925 29.1 39.2175 29.0325C39.15 28.9575 39.0975 28.8825 39.06 28.785C39.0216 28.6948 39.0012 28.598 39 28.5C39 28.4475 39.0075 28.4025 39.015 28.35C39.0225 28.305 39.0375 28.26 39.06 28.215C39.075 28.17 39.0975 28.125 39.1275 28.08C39.15 28.0425 39.1875 28.005 39.2175 27.9675C39.2925 27.9 39.375 27.8475 39.465 27.81C39.6 27.75 39.75 27.735 39.8925 27.765C39.945 27.7725 39.99 27.7875 40.035 27.81C40.08 27.825 40.125 27.8475 40.17 27.8775L40.2825 27.9675L40.3725 28.08C40.4025 28.125 40.425 28.17 40.44 28.215C40.4625 28.26 40.4775 28.305 40.485 28.35ZM40.44 31.965C40.4784 32.0552 40.4988 32.152 40.5 32.25C40.5 32.3025 40.4925 32.3475 40.485 32.4C40.477 32.447 40.4618 32.4926 40.44 32.535C40.425 32.58 40.4025 32.625 40.3725 32.67L40.2825 32.7825C40.245 32.8125 40.2075 32.85 40.17 32.8725C40.125 32.9025 40.08 32.925 40.035 32.94C39.9902 32.9626 39.9421 32.9778 39.8925 32.985C39.8475 32.9925 39.795 33 39.75 33C39.652 32.9988 39.5552 32.9784 39.465 32.94C39.3675 32.9025 39.2925 32.85 39.2175 32.7825C39.1875 32.745 39.15 32.7075 39.1275 32.67C39.0989 32.6283 39.0762 32.5829 39.06 32.535C39.0385 32.4924 39.0234 32.4469 39.015 32.4C39.0075 32.3475 39 32.3025 39 32.25C39.0012 32.152 39.0216 32.0552 39.06 31.965C39.0975 31.8675 39.15 31.7925 39.2175 31.7175C39.2925 31.65 39.375 31.5975 39.465 31.56C39.6 31.5 39.75 31.485 39.8925 31.515C39.945 31.5225 39.99 31.5375 40.035 31.56C40.08 31.575 40.125 31.5975 40.17 31.6275C40.2075 31.65 40.245 31.6875 40.2825 31.7175C40.35 31.7925 40.4025 31.8675 40.44 31.965ZM20.25 4.5H15C14.8011 4.5 14.6103 4.57902 14.4697 4.71967C14.329 4.86032 14.25 5.05109 14.25 5.25V9.75C14.25 9.94891 14.329 10.1397 14.4697 10.2803C14.6103 10.421 14.8011 10.5 15 10.5H20.25C20.4489 10.5 20.6397 10.421 20.7803 10.2803C20.921 10.1397 21 9.94891 21 9.75V5.25C21 5.05109 20.921 4.86032 20.7803 4.71967C20.6397 4.57902 20.4489 4.5 20.25 4.5ZM19.5 9H15.75V6H19.5V9Z" fill="black"/>
</svg>
