<svg width="184" height="37" viewBox="0 0 184 37" fill="none" xmlns="http://www.w3.org/2000/svg">
<g clip-path="url(#clip0_69_634)">
<mask id="mask0_69_634" style="mask-type:luminance" maskUnits="userSpaceOnUse" x="0" y="2" width="32" height="33">
<path d="M32 2.5H0V34.5H32V2.5Z" fill="white"/>
</mask>
<g mask="url(#mask0_69_634)">
<path fill-rule="evenodd" clip-rule="evenodd" d="M8 2.5H32V10.5V26.5L24 34.5V10.5H0L8 2.5ZM0 28.9107V18.5H10.4107L0 28.9107ZM16 34.5H5.72443L16 24.2245V34.5Z" fill="#2A2A2A"/>
</g>
</g>
<path d="M50.324 29.5V8.64H53.068V26.98H62.224V29.5H50.324ZM69.7044 29.836C68.715 29.836 67.8377 29.6587 67.0724 29.304C66.3257 28.9307 65.7377 28.4267 65.3084 27.792C64.879 27.1387 64.6644 26.392 64.6644 25.552C64.6644 24.7493 64.8324 24.0307 65.1684 23.396C65.523 22.7427 66.0644 22.192 66.7924 21.744C67.539 21.296 68.4724 20.9787 69.5924 20.792L75.1924 19.868V22.052L70.1804 22.892C69.2097 23.06 68.5004 23.368 68.0524 23.816C67.623 24.264 67.4084 24.8147 67.4084 25.468C67.4084 26.084 67.651 26.5973 68.1364 27.008C68.6404 27.4187 69.2657 27.624 70.0124 27.624C70.9644 27.624 71.7857 27.428 72.4764 27.036C73.1857 26.6253 73.7364 26.0747 74.1284 25.384C74.539 24.6933 74.7444 23.928 74.7444 23.088V19.252C74.7444 18.4307 74.4364 17.768 73.8204 17.264C73.223 16.7413 72.4297 16.48 71.4404 16.48C70.5817 16.48 69.8164 16.704 69.1444 17.152C68.491 17.5813 68.0057 18.16 67.6884 18.888L65.4204 17.712C65.7004 17.0213 66.1484 16.4053 66.7644 15.864C67.3804 15.304 68.099 14.8653 68.9204 14.548C69.7417 14.2307 70.6004 14.072 71.4964 14.072C72.6537 14.072 73.671 14.296 74.5484 14.744C75.4257 15.1733 76.107 15.78 76.5924 16.564C77.0964 17.3293 77.3484 18.2253 77.3484 19.252V29.5H74.8004V26.644L75.2764 26.812C74.959 27.4093 74.5297 27.932 73.9884 28.38C73.447 28.828 72.8124 29.1827 72.0844 29.444C71.3564 29.7053 70.563 29.836 69.7044 29.836ZM87.0138 29.836C85.9312 29.836 84.9512 29.584 84.0738 29.08C83.2152 28.576 82.5432 27.876 82.0578 26.98C81.5912 26.0653 81.3578 25.02 81.3578 23.844V14.408H83.9618V23.564C83.9618 24.3107 84.1112 24.964 84.4098 25.524C84.7272 26.084 85.1565 26.5227 85.6978 26.84C86.2578 27.1573 86.8925 27.316 87.6018 27.316C88.3112 27.316 88.9365 27.1573 89.4778 26.84C90.0378 26.5227 90.4672 26.0653 90.7658 25.468C91.0832 24.8707 91.2418 24.1613 91.2418 23.34V14.408H93.8738V29.5H91.3258V26.56L91.7458 26.812C91.3912 27.764 90.7845 28.5107 89.9258 29.052C89.0858 29.5747 88.1152 29.836 87.0138 29.836ZM98.188 29.5V14.408H100.736V17.18L100.456 16.788C100.811 15.9293 101.352 15.2947 102.08 14.884C102.808 14.4547 103.695 14.24 104.74 14.24H105.664V16.704H104.348C103.284 16.704 102.425 17.04 101.772 17.712C101.119 18.3653 100.792 19.2987 100.792 20.512V29.5H98.188ZM112.681 29.836C111.692 29.836 110.814 29.6587 110.049 29.304C109.302 28.9307 108.714 28.4267 108.285 27.792C107.856 27.1387 107.641 26.392 107.641 25.552C107.641 24.7493 107.809 24.0307 108.145 23.396C108.5 22.7427 109.041 22.192 109.769 21.744C110.516 21.296 111.449 20.9787 112.569 20.792L118.169 19.868V22.052L113.157 22.892C112.186 23.06 111.477 23.368 111.029 23.816C110.6 24.264 110.385 24.8147 110.385 25.468C110.385 26.084 110.628 26.5973 111.113 27.008C111.617 27.4187 112.242 27.624 112.989 27.624C113.941 27.624 114.762 27.428 115.453 27.036C116.162 26.6253 116.713 26.0747 117.105 25.384C117.516 24.6933 117.721 23.928 117.721 23.088V19.252C117.721 18.4307 117.413 17.768 116.797 17.264C116.2 16.7413 115.406 16.48 114.417 16.48C113.558 16.48 112.793 16.704 112.121 17.152C111.468 17.5813 110.982 18.16 110.665 18.888L108.397 17.712C108.677 17.0213 109.125 16.4053 109.741 15.864C110.357 15.304 111.076 14.8653 111.897 14.548C112.718 14.2307 113.577 14.072 114.473 14.072C115.63 14.072 116.648 14.296 117.525 14.744C118.402 15.1733 119.084 15.78 119.569 16.564C120.073 17.3293 120.325 18.2253 120.325 19.252V29.5H117.777V26.644L118.253 26.812C117.936 27.4093 117.506 27.932 116.965 28.38C116.424 28.828 115.789 29.1827 115.061 29.444C114.333 29.7053 113.54 29.836 112.681 29.836ZM130.07 29.5V8.64H143.286V11.16H132.814V17.908H142.306V20.428H132.814V29.5H130.07ZM146.367 29.5V14.408H148.971V29.5H146.367ZM146.367 12V8.64H148.971V12H146.367ZM160.235 29.836C158.779 29.836 157.482 29.4907 156.343 28.8C155.204 28.1093 154.308 27.1667 153.655 25.972C153.002 24.7587 152.675 23.4053 152.675 21.912C152.675 20.4 152.992 19.056 153.627 17.88C154.28 16.704 155.158 15.78 156.259 15.108C157.379 14.4173 158.63 14.072 160.011 14.072C161.131 14.072 162.12 14.2773 162.979 14.688C163.856 15.08 164.594 15.6213 165.191 16.312C165.807 16.984 166.274 17.7587 166.591 18.636C166.927 19.4947 167.095 20.3907 167.095 21.324C167.095 21.5293 167.076 21.7627 167.039 22.024C167.02 22.2667 166.992 22.5 166.955 22.724H154.579V20.484H165.443L164.211 21.492C164.379 20.5213 164.286 19.6533 163.931 18.888C163.576 18.1227 163.054 17.516 162.363 17.068C161.672 16.62 160.888 16.396 160.011 16.396C159.134 16.396 158.331 16.62 157.603 17.068C156.875 17.516 156.306 18.16 155.895 19C155.503 19.8213 155.344 20.8013 155.419 21.94C155.344 23.0413 155.512 24.012 155.923 24.852C156.352 25.6733 156.95 26.3173 157.715 26.784C158.499 27.232 159.348 27.456 160.263 27.456C161.271 27.456 162.12 27.2227 162.811 26.756C163.502 26.2893 164.062 25.692 164.491 24.964L166.675 26.084C166.376 26.7747 165.91 27.4093 165.275 27.988C164.659 28.548 163.922 28.996 163.063 29.332C162.223 29.668 161.28 29.836 160.235 29.836ZM176.174 29.836C174.662 29.836 173.346 29.4627 172.226 28.716C171.106 27.9693 170.313 26.9613 169.846 25.692L171.918 24.684C172.348 25.58 172.936 26.2893 173.682 26.812C174.429 27.3347 175.26 27.596 176.174 27.596C176.996 27.596 177.677 27.4 178.218 27.008C178.76 26.616 179.03 26.1027 179.03 25.468C179.03 25.02 178.9 24.6653 178.638 24.404C178.396 24.124 178.097 23.9093 177.742 23.76C177.388 23.592 177.061 23.4707 176.762 23.396L174.494 22.752C173.132 22.36 172.133 21.8 171.498 21.072C170.882 20.344 170.574 19.4947 170.574 18.524C170.574 17.628 170.798 16.8533 171.246 16.2C171.713 15.528 172.338 15.0053 173.122 14.632C173.925 14.2587 174.821 14.072 175.81 14.072C177.136 14.072 178.321 14.408 179.366 15.08C180.43 15.752 181.186 16.6947 181.634 17.908L179.506 18.888C179.17 18.104 178.666 17.488 177.994 17.04C177.322 16.5733 176.566 16.34 175.726 16.34C174.961 16.34 174.354 16.536 173.906 16.928C173.458 17.3013 173.234 17.7773 173.234 18.356C173.234 18.7853 173.346 19.14 173.57 19.42C173.794 19.6813 174.065 19.8867 174.382 20.036C174.7 20.1667 175.008 20.2787 175.306 20.372L177.77 21.1C179.002 21.4547 179.954 22.0053 180.626 22.752C181.317 23.4987 181.662 24.3947 181.662 25.44C181.662 26.28 181.429 27.036 180.962 27.708C180.496 28.38 179.852 28.9027 179.03 29.276C178.209 29.6493 177.257 29.836 176.174 29.836Z" fill="black"/>
<defs>
<clipPath id="clip0_69_634">
<rect width="32" height="32" fill="white" transform="translate(0 2.5)"/>
</clipPath>
</defs>
</svg>
