<svg width="19" height="21" viewBox="0 0 19 21" fill="none" xmlns="http://www.w3.org/2000/svg">
<path d="M12.6667 11.603H14.25C15.1248 11.603 15.8333 12.3489 15.8333 13.2697V13.2697C15.8333 14.1905 15.1248 14.9364 14.25 14.9364H4.74999C3.8752 14.9364 3.16666 15.6822 3.16666 16.603V16.603C3.16666 17.5239 3.8752 18.2697 4.74999 18.2697H7.91666" stroke="white" stroke-linecap="round" stroke-linejoin="round"/>
<path fill-rule="evenodd" clip-rule="evenodd" d="M8.70832 11.6029C8.70832 11.6029 11.875 8.9412 11.875 6.51036C11.875 4.72036 10.4571 3.26953 8.70832 3.26953C6.95953 3.26953 5.54166 4.72036 5.54166 6.51036C5.54166 8.9412 8.70832 11.6029 8.70832 11.6029Z" stroke="white" stroke-linecap="round" stroke-linejoin="round"/>
<path d="M8.70913 6.37096C8.83421 6.37096 8.93475 6.47513 8.93475 6.60263C8.93475 6.73013 8.83342 6.83346 8.70834 6.83346C8.58325 6.83346 8.48271 6.73013 8.48271 6.6018C8.48192 6.47513 8.58325 6.37096 8.70913 6.37096" stroke="white" stroke-linecap="round" stroke-linejoin="round"/>
</svg>
