<svg width="20" height="21" viewBox="0 0 20 21" fill="none" xmlns="http://www.w3.org/2000/svg">
<path fill-rule="evenodd" clip-rule="evenodd" d="M2.5 6.43604V6.43604C2.5 6.93604 2.75 7.3527 3.16667 7.68604L8.16667 11.1027C9.33333 11.8527 10.75 11.8527 11.9167 11.1027L16.9167 7.76937C17.25 7.3527 17.5 6.93604 17.5 6.43604V6.43604C17.5 5.6027 16.8333 4.93604 16 4.93604H4C3.16667 4.93604 2.5 5.6027 2.5 6.43604Z" stroke="white" stroke-linecap="round" stroke-linejoin="round"/>
<path d="M2.5 6.60303V14.9364C2.5 15.853 3.25 16.603 4.16667 16.603H15.8333C16.75 16.603 17.5 15.853 17.5 14.9364V6.60303" stroke="white" stroke-linecap="round" stroke-linejoin="round"/>
<path d="M2.98999 16.113L8.06832 11.0347" stroke="white" stroke-linecap="round" stroke-linejoin="round"/>
<path d="M11.9667 11.0693L17.01 16.1127" stroke="white" stroke-linecap="round" stroke-linejoin="round"/>
</svg>
