<svg width="50" height="50" viewBox="0 0 50 50" fill="none" xmlns="http://www.w3.org/2000/svg">
<g clip-path="url(#clip0_342_84)">
<path d="M43.052 0.273438H6.94176C3.26371 0.273438 0.271484 3.26566 0.271484 6.94372V43.054C0.271484 46.7318 3.26371 49.724 6.94176 49.724H43.052C46.7301 49.724 49.7223 46.7318 49.7223 43.054V6.94372C49.722 3.26566 46.7298 0.273438 43.052 0.273438ZM47.4998 43.0537C47.4998 45.5062 45.5045 47.5015 43.0518 47.5015H6.94176C4.48898 47.5015 2.49371 45.5062 2.49371 43.0537V6.94372C2.49371 4.49094 4.48898 2.49566 6.94176 2.49566H43.052C45.5048 2.49566 47.5001 4.49094 47.5001 6.94372L47.4998 43.0537Z" fill="black"/>
<path d="M36.9422 31.361H13.0525C12.7578 31.361 12.4752 31.4781 12.2668 31.6865C12.0585 31.8948 11.9414 32.1774 11.9414 32.4721C11.9414 32.7668 12.0585 33.0494 12.2668 33.2578C12.4752 33.4662 12.7578 33.5832 13.0525 33.5832H36.9422C37.2369 33.5832 37.5195 33.4662 37.7279 33.2578C37.9363 33.0494 38.0534 32.7668 38.0534 32.4721C38.0534 32.1774 37.9363 31.8948 37.7279 31.6865C37.5195 31.4781 37.2369 31.361 36.9422 31.361ZM36.9422 23.8885H13.0525C12.7578 23.8885 12.4752 24.0056 12.2668 24.214C12.0585 24.4223 11.9414 24.7049 11.9414 24.9996C11.9414 25.2943 12.0585 25.5769 12.2668 25.7853C12.4752 25.9937 12.7578 26.1107 13.0525 26.1107H36.9422C37.2369 26.1107 37.5195 25.9937 37.7279 25.7853C37.9363 25.5769 38.0534 25.2943 38.0534 24.9996C38.0534 24.7049 37.9363 24.4223 37.7279 24.214C37.5195 24.0056 37.2369 23.8885 36.9422 23.8885ZM36.9422 16.416H13.0525C12.7578 16.416 12.4752 16.5331 12.2668 16.7415C12.0585 16.9498 11.9414 17.2324 11.9414 17.5271C11.9414 17.8218 12.0585 18.1044 12.2668 18.3128C12.4752 18.5212 12.7578 18.6382 13.0525 18.6382H36.9422C37.2369 18.6382 37.5195 18.5212 37.7279 18.3128C37.9363 18.1044 38.0534 17.8218 38.0534 17.5271C38.0534 17.2324 37.9363 16.9498 37.7279 16.7415C37.5195 16.5331 37.2369 16.416 36.9422 16.416Z" fill="black"/>
</g>
<defs>
<clipPath id="clip0_342_84">
<rect width="50" height="50" fill="white"/>
</clipPath>
</defs>
</svg>
