<svg width="19" height="21" viewBox="0 0 19 21" fill="none" xmlns="http://www.w3.org/2000/svg">
<path fill-rule="evenodd" clip-rule="evenodd" d="M8.02037 12.3268C7.09412 11.3518 6.39587 10.2602 5.93196 9.15268C5.83458 8.91851 5.89158 8.64434 6.06337 8.46351L6.71175 7.78101C7.24296 7.22184 7.24296 6.43101 6.77904 5.94268L5.85042 4.96518C5.23212 4.31434 4.22987 4.31434 3.61158 4.96518L3.09542 5.50768C2.50879 6.12518 2.26417 7.01601 2.4225 7.89934C2.81358 10.0768 4.01533 12.461 5.95412 14.5018C7.89292 16.5427 10.1579 17.8077 12.2265 18.2193C13.0657 18.386 13.912 18.1285 14.4986 17.511L15.014 16.9685C15.6322 16.3177 15.6322 15.2627 15.014 14.6118L14.0853 13.6343C13.6214 13.146 12.8693 13.146 12.4062 13.6343L11.6913 14.3877C11.5195 14.5685 11.2591 14.6293 11.0366 14.526C9.9845 14.0368 8.94662 13.301 8.02037 12.3268Z" stroke="white" stroke-linecap="round" stroke-linejoin="round"/>
<path d="M16.625 8.26953V3.26953H11.875" stroke="white" stroke-linecap="round" stroke-linejoin="round"/>
<path d="M11.875 8.26953L16.625 3.26953" stroke="white" stroke-linecap="round" stroke-linejoin="round"/>
</svg>
