<svg width="24" height="25" viewBox="0 0 24 25" fill="none" xmlns="http://www.w3.org/2000/svg">
<path d="M13.028 2.76953C14.153 2.77253 14.724 2.77853 15.217 2.79253L15.411 2.79953C15.635 2.80753 15.856 2.81753 16.123 2.82953C17.187 2.87953 17.913 3.04753 18.55 3.29453C19.21 3.54853 19.766 3.89253 20.322 4.44753C20.8307 4.94726 21.2242 5.552 21.475 6.21953C21.722 6.85653 21.89 7.58253 21.94 8.64753C21.952 8.91353 21.962 9.13453 21.97 9.35953L21.976 9.55353C21.991 10.0455 21.997 10.6165 21.999 11.7415L22 12.4875V13.7975C22.0024 14.5269 21.9948 15.2563 21.977 15.9855L21.971 16.1795C21.963 16.4045 21.953 16.6255 21.941 16.8915C21.891 17.9565 21.721 18.6815 21.475 19.3195C21.2242 19.9871 20.8307 20.5918 20.322 21.0915C19.8223 21.6002 19.2175 21.9937 18.55 22.2445C17.913 22.4915 17.187 22.6595 16.123 22.7095L15.411 22.7395L15.217 22.7455C14.724 22.7595 14.153 22.7665 13.028 22.7685L12.282 22.7695H10.973C10.2432 22.7721 9.51351 22.7644 8.78399 22.7465L8.58999 22.7405C8.3526 22.7315 8.11526 22.7212 7.87799 22.7095C6.81399 22.6595 6.08799 22.4915 5.44999 22.2445C4.78282 21.9936 4.17843 21.6001 3.67899 21.0915C3.16993 20.5919 2.7761 19.9872 2.52499 19.3195C2.27799 18.6825 2.10999 17.9565 2.05999 16.8915L2.02999 16.1795L2.02499 15.9855C2.00656 15.2563 1.99822 14.5269 1.99999 13.7975V11.7415C1.99722 11.0121 2.00456 10.2827 2.02199 9.55353L2.02899 9.35953C2.03699 9.13453 2.04699 8.91353 2.05899 8.64753C2.10899 7.58253 2.27699 6.85753 2.52399 6.21953C2.77568 5.55173 3.17021 4.94697 3.67999 4.44753C4.17914 3.93908 4.78318 3.5456 5.44999 3.29453C6.08799 3.04753 6.81299 2.87953 7.87799 2.82953C8.14399 2.81753 8.36599 2.80753 8.58999 2.79953L8.78399 2.79353C9.51318 2.77576 10.2426 2.7681 10.972 2.77053L13.028 2.76953ZM12 7.76953C10.6739 7.76953 9.40214 8.29632 8.46446 9.234C7.52677 10.1717 6.99999 11.4434 6.99999 12.7695C6.99999 14.0956 7.52677 15.3674 8.46446 16.3051C9.40214 17.2427 10.6739 17.7695 12 17.7695C13.3261 17.7695 14.5978 17.2427 15.5355 16.3051C16.4732 15.3674 17 14.0956 17 12.7695C17 11.4434 16.4732 10.1717 15.5355 9.234C14.5978 8.29632 13.3261 7.76953 12 7.76953ZM12 9.76953C12.394 9.76947 12.7841 9.847 13.1481 9.9977C13.5121 10.1484 13.8428 10.3693 14.1215 10.6479C14.4001 10.9264 14.6211 11.2571 14.7719 11.621C14.9228 11.985 15.0004 12.3751 15.0005 12.769C15.0006 13.163 14.923 13.5531 14.7723 13.9171C14.6216 14.2811 14.4007 14.6119 14.1222 14.8905C13.8436 15.1691 13.513 15.3902 13.149 15.541C12.785 15.6918 12.395 15.7695 12.001 15.7695C11.2053 15.7695 10.4423 15.4535 9.87967 14.8909C9.31706 14.3282 9.00099 13.5652 9.00099 12.7695C9.00099 11.9739 9.31706 11.2108 9.87967 10.6482C10.4423 10.0856 11.2053 9.76953 12.001 9.76953M17.251 6.26953C16.9195 6.26953 16.6015 6.40123 16.3671 6.63565C16.1327 6.87007 16.001 7.18801 16.001 7.51953C16.001 7.85105 16.1327 8.16899 16.3671 8.40341C16.6015 8.63784 16.9195 8.76953 17.251 8.76953C17.5825 8.76953 17.9005 8.63784 18.1349 8.40341C18.3693 8.16899 18.501 7.85105 18.501 7.51953C18.501 7.18801 18.3693 6.87007 18.1349 6.63565C17.9005 6.40123 17.5825 6.26953 17.251 6.26953Z" fill="white"/>
</svg>
