<svg width="24" height="25" viewBox="0 0 24 25" fill="none" xmlns="http://www.w3.org/2000/svg">
<path d="M20.462 3.99951C20.616 3.99951 20.77 4.07751 20.846 4.15451C20.8838 4.22546 20.9036 4.30462 20.9036 4.38501C20.9036 4.46541 20.8838 4.54457 20.846 4.61551L14.77 15.3855L18.616 22.4615C18.654 22.5326 18.6739 22.6119 18.6739 22.6925C18.6739 22.7731 18.654 22.8524 18.616 22.9235C18.51 23.019 18.3736 23.0736 18.231 23.0775H15.461C15.077 23.0775 14.847 22.7695 14.693 22.5385L10.77 15.3845C11 15.0775 16.924 4.53951 16.924 4.53951C17.077 4.23151 17.308 4.00151 17.693 4.00151L20.462 3.99951ZM8.923 7.76951C9.308 7.76951 9.539 8.07751 9.693 8.30751L11.616 11.6155C11.462 11.7695 8.616 16.8455 8.616 16.8455C8.462 17.0775 8.231 17.3855 7.846 17.3855H5.155C5.01279 17.3813 4.8767 17.3267 4.771 17.2315C4.73301 17.1604 4.71313 17.0811 4.71313 17.0005C4.71313 16.9199 4.73301 16.8406 4.771 16.7695L7.617 11.6155L5.771 8.38551C5.73301 8.31444 5.71313 8.2351 5.71313 8.15451C5.71313 8.07393 5.73301 7.99458 5.771 7.92351C5.87644 7.82849 6.01214 7.77393 6.154 7.76951H8.923Z" fill="white"/>
</svg>
