<svg width="24" height="25" viewBox="0 0 24 25" fill="none" xmlns="http://www.w3.org/2000/svg">
<path d="M20.47 2.76967H3.53C3.33958 2.76703 3.1505 2.80192 2.97356 2.87235C2.79663 2.94279 2.6353 3.04739 2.4988 3.18018C2.36229 3.31297 2.25328 3.47136 2.17799 3.64628C2.1027 3.82121 2.06261 4.00925 2.06 4.19967V21.3397C2.06261 21.5301 2.1027 21.7181 2.17799 21.8931C2.25328 22.068 2.36229 22.2264 2.4988 22.3592C2.6353 22.4919 2.79663 22.5965 2.97356 22.667C3.1505 22.7374 3.33958 22.7723 3.53 22.7697H20.47C20.6604 22.7723 20.8495 22.7374 21.0264 22.667C21.2034 22.5965 21.3647 22.4919 21.5012 22.3592C21.6377 22.2264 21.7467 22.068 21.822 21.8931C21.8973 21.7181 21.9374 21.5301 21.94 21.3397V4.19967C21.9374 4.00925 21.8973 3.82121 21.822 3.64628C21.7467 3.47136 21.6377 3.31297 21.5012 3.18018C21.3647 3.04739 21.2034 2.94279 21.0264 2.87235C20.8495 2.80192 20.6604 2.76703 20.47 2.76967ZM8.09 19.5097H5.09V10.5097H8.09V19.5097ZM6.59 9.24967C6.17626 9.24967 5.77947 9.08531 5.48691 8.79276C5.19435 8.5002 5.03 8.10341 5.03 7.68967C5.03 7.27593 5.19435 6.87914 5.48691 6.58658C5.77947 6.29403 6.17626 6.12967 6.59 6.12967C6.80969 6.10476 7.03217 6.12653 7.24287 6.19355C7.45357 6.26058 7.64774 6.37136 7.81265 6.51863C7.97757 6.6659 8.10952 6.84635 8.19987 7.04815C8.29021 7.24996 8.33692 7.46857 8.33692 7.68967C8.33692 7.91077 8.29021 8.12938 8.19987 8.33119C8.10952 8.53299 7.97757 8.71344 7.81265 8.86071C7.64774 9.00798 7.45357 9.11876 7.24287 9.18579C7.03217 9.25282 6.80969 9.27459 6.59 9.24967ZM18.91 19.5097H15.91V14.6797C15.91 13.4697 15.48 12.6797 14.39 12.6797C14.0527 12.6821 13.7242 12.788 13.4488 12.9828C13.1735 13.1777 12.9645 13.4523 12.85 13.7697C12.7717 14.0047 12.7378 14.2522 12.75 14.4997V19.4997H9.75V10.4997H12.75V11.7697C13.0225 11.2968 13.4189 10.9072 13.8964 10.6429C14.374 10.3786 14.9146 10.2495 15.46 10.2697C17.46 10.2697 18.91 11.5597 18.91 14.3297V19.5097Z" fill="white"/>
</svg>
