<svg width="24" height="25" viewBox="0 0 24 25" fill="none" xmlns="http://www.w3.org/2000/svg">
<path d="M20.9 2.76953H3.1C2.80826 2.76953 2.52847 2.88542 2.32218 3.09171C2.11589 3.298 2 3.57779 2 3.86953V21.6695C2 21.9613 2.11589 22.2411 2.32218 22.4473C2.52847 22.6536 2.80826 22.7695 3.1 22.7695H12.68V15.0195H10.08V12.0195H12.68V9.76953C12.6261 9.24129 12.6885 8.70766 12.8627 8.20607C13.0369 7.70448 13.3188 7.24708 13.6885 6.86594C14.0582 6.48481 14.5068 6.18917 15.0028 5.99977C15.4989 5.81037 16.0304 5.73178 16.56 5.76953C17.3383 5.76416 18.1163 5.80423 18.89 5.88953V8.58953H17.3C16.04 8.58953 15.8 9.18953 15.8 10.0595V11.9895H18.8L18.41 14.9895H15.8V22.7695H20.9C21.0445 22.7695 21.1875 22.7411 21.321 22.6858C21.4544 22.6305 21.5757 22.5495 21.6778 22.4473C21.78 22.3452 21.861 22.2239 21.9163 22.0905C21.9715 21.957 22 21.814 22 21.6695V3.86953C22 3.72508 21.9715 3.58204 21.9163 3.44858C21.861 3.31512 21.78 3.19386 21.6778 3.09171C21.5757 2.98957 21.4544 2.90854 21.321 2.85326C21.1875 2.79798 21.0445 2.76953 20.9 2.76953Z" fill="white"/>
</svg>
