<svg width="32" height="33" viewBox="0 0 32 33" fill="none" xmlns="http://www.w3.org/2000/svg">
<path d="M18.6666 3.43604V8.76937C18.6666 9.47661 18.9476 10.1549 19.4477 10.655C19.9478 11.1551 20.6261 11.436 21.3333 11.436H26.6666M16 16.7694V24.7694M16 16.7694L20 20.7694M16 16.7694L12 20.7694M20 3.43604H7.99998C7.29274 3.43604 6.61446 3.71699 6.11436 4.21708C5.61426 4.71718 5.33331 5.39546 5.33331 6.1027V27.436C5.33331 28.1433 5.61426 28.8216 6.11436 29.3217C6.61446 29.8218 7.29274 30.1027 7.99998 30.1027H24C24.7072 30.1027 25.3855 29.8218 25.8856 29.3217C26.3857 28.8216 26.6666 28.1433 26.6666 27.436V10.1027L20 3.43604Z" stroke="#2A2A2A" stroke-linecap="round" stroke-linejoin="round"/>
</svg>
